<svg width="439" height="556" xmlns="http://www.w3.org/2000/svg" xmlns:xlink="http://www.w3.org/1999/xlink" xml:space="preserve" overflow="hidden"><defs><clipPath id="clip0"><rect x="398" y="59" width="439" height="556"/></clipPath></defs><g clip-path="url(#clip0)" transform="translate(-398 -59)"><path d="M1612.8 475.609 1547.82 574.077 1612.8 574.077ZM1612.78 406.276 1612.8 406.287 1612.8 406.276 1651 406.276 1651 574.077 1728.3 574.077 1728.3 462.479 1766.5 462.479 1766.5 734.754 1728.3 734.754 1728.3 612.281 1651 612.281 1651 734.754 1612.8 734.754 1612.8 612.281 1522.61 612.281 1441.8 734.754 1396.03 734.754Z" fill="#78206E" fill-rule="evenodd" transform="matrix(1 0 0 1.00166 -963.456 -347.95)"/><text fill="#78206E" font-family="Segoe UI,Segoe UI_MSFontService,sans-serif" font-weight="400" font-size="128" transform="matrix(0.61744 0 0 0.618465 453.384 457)">ANDREW</text><text fill="#78206E" font-family="Segoe UI,Segoe UI_MSFontService,sans-serif" font-weight="400" font-size="128" transform="matrix(0.61744 0 0 0.618465 464.381 549)">HOLMES</text></g></svg>